<svg xmlns="http://www.w3.org/2000/svg" width="15" height="15"><defs><linearGradient id="linear0" gradientUnits="userSpaceOnUse" x1="35.325" y1="35.325" x2="136.676" y2="136.676" gradientTransform="rotate(.23) scale(.08721)"><stop offset="0" style="stop-color:#ff9d9d;stop-opacity:1"/><stop offset="1" style="stop-color:#d15050;stop-opacity:1"/></linearGradient><linearGradient id="linear1" gradientUnits="userSpaceOnUse" x1="46.583" y1="88.842" x2="129" y2="88.842" gradientTransform="rotate(.23) scale(.08721)"><stop offset=".824" style="stop-color:#135d36;stop-opacity:1"/><stop offset=".931" style="stop-color:#125933;stop-opacity:1"/><stop offset="1" style="stop-color:#11522f;stop-opacity:1"/></linearGradient></defs><g id="surface3881703"><path style="stroke:none;fill-rule:nonzero;fill:url(#linear0)" d="M13.75 7.5a6.248 6.248 0 0 1-6.25 6.25A6.248 6.248 0 0 1 1.25 7.5 6.248 6.248 0 0 1 7.5 1.25a6.248 6.248 0 0 1 6.25 6.25Zm0 0"/><path style="stroke:none;fill-rule:nonzero;fill:url(#linear1)" d="m6.652 10.223-2.5-2.5a.318.318 0 0 1 0-.446l.446-.441a.314.314 0 0 1 .441 0l1.836 1.84 3.398-3.403a.314.314 0 0 1 .442 0l.445.442a.318.318 0 0 1 0 .445l-4.062 4.063a.318.318 0 0 1-.446 0Zm0 0"/></g></svg>