<svg xmlns="http://www.w3.org/2000/svg" width="500" height="500"><path style="stroke:none;fill-rule:nonzero;fill:#0868ac;fill-opacity:1" d="M298.672 30.078c-1.055.156-2.11.469-3.125.938-8.594 4.257-18.36 16.914-20.235 19.414a3.258 3.258 0 0 0-.312.468c-9.648 14.454-14.805 31.368-15 48.985-.117 13.203 2.46 26.289 7.695 38.906 12.188 29.258 37.5 53.477 67.618 64.805 1.015.351 1.992.703 3.75 1.328.156.078 1.64.547 1.875.586l1.093.39c1.563.508 3.164 1.016 4.727 1.329 7.93 1.601 15.664 2.5 22.93 2.734 1.25 0 2.5.039 3.75.039 54.804 0 76.054-38.672 83.125-51.563.703-1.25 1.21-2.265 1.68-2.89 0-.04 0-.04.038-.078a10.036 10.036 0 0 0-2.656-13.906c-4.531-3.086-10.742-1.915-13.867 2.656h-.04c-14.609 21.523-39.609 28.047-74.257 19.453-2.578-.625-5.39-1.602-7.89-2.54a95.575 95.575 0 0 1-9.61-4.023 101.977 101.977 0 0 1-16.914-10.586c-30.469-23.632-42.383-72.812-24.57-101.21a10 10 0 0 0-1.055-12.032 9.992 9.992 0 0 0-8.75-3.203ZM210.078 50a9.789 9.789 0 0 0-6.445 2.266c-15.117 12.304-30.586 32.46-31.25 33.28a2.627 2.627 0 0 1-.274.43c-27.343 39.805-29.414 96.446-5.234 144.297a180.03 180.03 0 0 0 12.656 21.446l1.367 1.953c3.868 5.664 8.204 12.07 13.75 17.07 1.915 2.188 3.985 4.297 6.016 6.328l.977 1.016.82.82c2.07 1.992 4.18 4.024 6.367 5.977h.04c.155.234.39.39.585.586 2.461 2.187 4.961 4.258 8.281 6.875l.899.664a166.464 166.464 0 0 0 7.89 5.937l.82.586c.938.625 1.876 1.211 2.813 1.875l.938.625 1.094.703c1.992 1.329 3.945 2.54 6.718 4.141 1.797 1.094 3.711 2.188 4.961 2.813.547.312 1.133.625 2.5 1.367l3.047 1.601c.156.078.86.39 1.016.469a147.834 147.834 0 0 0 6.132 2.93l3.165 1.406c2.07.898 4.18 1.758 6.757 2.734l1.172.43c.078.078 1.055.43 1.133.469 1.875.664 3.79 1.328 5.703 1.953l4.375 1.445c2.188.742 4.727 1.602 7.5 2.07C300 328.829 313.242 330 325.781 330c1.485 0 2.969-.04 4.414-.04 110.39-2.42 139.102-96.21 139.375-97.147 1.368-4.727-.86-9.766-5.312-11.875-4.453-2.11-9.766-.625-12.54 3.437-27.968 40.86-80.859 58.125-134.726 43.906-2.5-.625-4.922-1.328-7.93-2.304-.507-.157-.937-.313-1.757-.625a90.93 90.93 0 0 1-5.43-1.875l-2.773-1.055c-1.602-.625-3.204-1.25-5.157-2.11l-1.289-.585c-2.383-1.016-4.687-2.149-6.758-3.164l-5.703-2.97c-1.289-.624-2.422-1.327-4.18-2.382l-.976-.547-.976-.586c-1.446-.86-2.891-1.758-4.22-2.695l-.937-.586c-.078-.04-.86-.586-.937-.664-1.172-.742-2.305-1.485-3.399-2.188-2.422-1.718-4.804-3.515-7.578-5.703l-1.094-.898c-25.78-20.586-44.843-48.086-53.789-77.578-8.32-27.07-2.148-62.5 16.524-94.766 2.422-4.18 1.523-9.492-2.188-12.617C214.61 50.82 212.344 50 210.078 50ZM100.04 80c-2.383 0-4.805.86-6.719 2.578-19.101 17.149-33.398 39.375-34.96 41.914-40.86 59.492-32.97 151.953-4.922 208.477a93.953 93.953 0 0 0 1.718 3.437l.39.625c.509 1.133 1.095 2.305 1.29 2.54.312.741.781 1.562.977 1.796.468.977.937 1.836 1.796 3.32l3.203 5.508a60.99 60.99 0 0 1 1.094 1.797 364.39 364.39 0 0 0 1.953 3.125l1.563 2.5c.469.742.937 1.406 1.25 1.797 1.562 2.422 3.125 4.844 4.844 7.149.078.117.156.195.234.273l.625.86c1.406 2.03 2.852 3.984 4.14 5.585l5.704 7.227c.078.078.703.82.742.898l.82.938a162.492 162.492 0 0 0 5.39 6.25c.274.312.548.586.821.898a651.786 651.786 0 0 0 5.43 5.82l1.797 1.72c1.484 1.562 2.969 3.085 4.531 4.53 0 .04.742.743.742.743l1.563 1.445c1.875 1.797 3.828 3.594 5.312 4.844.078.117 1.485 1.328 1.602 1.406a154.584 154.584 0 0 0 5.547 4.727l9.57 7.578c1.601 1.172 3.242 2.343 5.117 3.71.625.47 1.29.938 1.953 1.368.274.234.586.469.781.586l7.188 4.804c2.617 1.72 5.234 3.32 8.438 5.235l1.718.976c1.992 1.172 4.024 2.344 5.938 3.36 1.133.625 2.265 1.172 3.242 1.68 1.367.742 2.851 1.562 5.117 2.656.195.117 1.797.898 1.992.976 2.266 1.133 4.57 2.188 7.461 3.477 0 .039.938.469.938.469a421.64 421.64 0 0 0 8.633 3.593c.546.235 1.093.43 1.21.47 2.422.937 4.961 1.874 7.032 2.616.195.078 1.25.508 1.445.586a371.02 371.02 0 0 0 9.024 2.93c.585.195 1.21.39 1.289.39l1.992.625c2.422.743 4.844 1.524 7.46 2.032C234.649 468.242 252.813 470 270 470h.04c143.241 0 188.866-115.273 189.335-116.445a10.008 10.008 0 0 0-4.531-12.305c-4.297-2.383-9.766-1.25-12.813 2.695-36.758 48.399-106.094 66.368-185.469 48.125a106.24 106.24 0 0 1-5.78-1.601l-3.75-1.133c-2.54-.781-5.079-1.64-7.54-2.5-.039 0-1.172-.43-1.172-.43-2.187-.742-4.375-1.601-6.289-2.344l-2.187-.859a198.36 198.36 0 0 1-7.188-3.047l-1.367-.586c-2.11-.976-4.14-1.914-6.172-2.93-.156-.077-1.758-.859-1.914-.898a149.02 149.02 0 0 1-4.61-2.422l-8.163-4.375a27.977 27.977 0 0 0-2.5-1.484c-2.461-1.524-5-3.047-7.5-4.649-.586-.351-1.094-.742-2.07-1.406-1.72-1.094-3.4-2.226-5.86-3.945l-.977-.703c-1.68-1.172-3.32-2.422-4.687-3.438-.86-.625-1.719-1.328-3.125-2.382-1.25-.977-2.5-1.915-3.672-2.852l-2.187-1.797c-1.836-1.484-3.555-3.047-5.352-4.57a5.086 5.086 0 0 0-.703-.586c-1.992-1.836-4.024-3.672-6.445-5.977l-7.07-7.031a209.116 209.116 0 0 1-5.391-5.703c-1.797-1.992-3.516-3.985-5.82-6.719l-4.22-5.156a26.713 26.713 0 0 0-1.718-2.266c-1.446-1.953-2.89-3.867-4.336-5.898-38.906-53.594-49.063-165.469-18.75-206.445 3.047-4.102 2.5-9.883-1.328-13.36-1.875-1.719-4.297-2.578-6.68-2.578Zm0 0" id="surface10794072"/></svg>