<svg xmlns="http://www.w3.org/2000/svg" xmlns:xlink="http://www.w3.org/1999/xlink" version="1.1" width="1500" height="1500" x="0" y="0" id="svg488"><g id="g17" style="fill:#e6e6e6"><defs id="defs5"><clipPath id="clip-path-id-viewbox-item-0"><path id="rect2" d="M0 0h35v35H0z"/></clipPath></defs><g transform="translate(1 1) scale(42.82857)" id="g15" style="fill:#e6e6e6"><g clip-path="url('#clip-path-id-viewbox-item-0')" id="g13" style="fill:#e6e6e6"><g id="Layer_2-i0" data-name="Layer 2" style="fill:#e6e6e6"><g id="Layer_1-2-i0" data-name="Layer 1" style="fill:#e6e6e6"><path fill="#fff" id="rect9" style="fill:#e6e6e6" d="M0 0h35v35H0z"/></g></g></g></g></g><g id="g101"><defs id="defs22"><clipPath id="clip-path-id-viewbox-item-1"><path id="rect19" d="M0 0h697.36v591.828H0z"/></clipPath></defs><g transform="matrix(1.85557 0 0 1.85865 104 139)" id="g99"><g clip-path="url('#clip-path-id-viewbox-item-1')" id="g97"><g id="g95"><g opacity=".3" id="g54"><path fill="#C4ECFE" d="M694.333 2.22v587.187H2.22V2.22h692.113m2.22-2.22H0v591.727h696.553V0z" id="path24"/><g id="g28"><path fill="#C4ECFE" id="rect26" d="M0 419.405h696.553v2.119H0z"/></g><g id="g32"><path fill="#C4ECFE" id="rect30" d="M0 334.757h696.553v2.119H0z"/></g><g id="g36"><path fill="#C4ECFE" id="rect34" d="M0 419.405h696.553v2.119H0z"/></g><g id="g40"><path fill="#C4ECFE" id="rect38" d="M0 504.153h696.553v2.119H0z"/></g><g id="g44"><path fill="#C4ECFE" id="rect42" d="M0 250.008h696.553v2.119H0z"/></g><g id="g48"><path fill="#C4ECFE" id="rect46" d="M0 165.26h696.553v2.119H0z"/></g><g id="g52"><path fill="#C4ECFE" id="rect50" d="M0 80.511h696.553v2.119H0z"/></g></g><circle fill="#BFD9FF" cx="138.927" cy="308.122" r="3.027" id="circle56"/><circle fill="#BFD9FF" cx="441.399" cy="545.62" r="3.027" id="circle58"/><circle fill="#BFD9FF" cx="599.092" cy="17.454" r="3.027" id="circle60"/><circle fill="#BFD9FF" cx="636.825" cy="203.397" r="3.027" id="circle62"/><circle fill="#BFD9FF" cx="49.84" cy="61.039" r="3.027" id="circle64"/><circle fill="#BFD9FF" cx="174.643" cy="46.309" r="2.724" id="circle66"/><linearGradient id="SVGID_7_-i1" gradientUnits="userSpaceOnUse" x1="135.434" y1="184.988" x2="135.434" y2="-26.803" gradientTransform="rotate(180 138.82 256.191)"><stop offset="0" style="stop-color:#ffd8a1" id="stop68"/><stop offset="1" style="stop-color:#fff" id="stop70"/></linearGradient><path fill="url('#SVGID_7_-i1')" d="M2.724 277.35c0-16.849 24.315-19.371 27.846-2.926 4.944 23.407 11.199 50.547 42.374 61.14 35.009 11.905 26.131 56.096 90.6 73.751 64.469 17.656 6.558 158.097 118.144 182.411H2.724V277.35z" id="path73"/><linearGradient id="SVGID_18_-i1" gradientUnits="userSpaceOnUse" x1="-465.355" y1="106.166" x2="-465.355" y2="-71.853" gradientTransform="rotate(180 43.865 256.191)"><stop offset="0" style="stop-color:#c0ddfc" id="stop75"/><stop offset=".19" style="stop-color:#d3e7fd" id="stop77"/><stop offset=".49" style="stop-color:#ebf4fe" id="stop79"/><stop offset=".77" style="stop-color:#fafcff" id="stop81"/><stop offset="1" style="stop-color:#fff" id="stop83"/></linearGradient><path fill="url('#SVGID_18_-i1')" d="M412.342 591.626c80.208 0 77.585-131.966 147.301-149.319 27.846-6.961 42.98-29.258 55.894-53.573 21.49-40.457 78.292-24.113 78.292 22.6v180.393H412.342v-.101z" id="path86"/><linearGradient id="SVGID_34_-i1" gradientUnits="userSpaceOnUse" x1="-15629.288" y1="-5.135" x2="-15629.288" y2="-76.453" gradientTransform="rotate(180 -7506.195 256.191)"><stop offset="0" style="stop-color:#ffd8a1" id="stop88"/><stop offset="1" style="stop-color:#fff" id="stop90"/></linearGradient><path fill="url('#SVGID_34_-i1')" d="M536.439 591.828c43.383 0 39.852-56.903 91.912-51.152 17.858 2.018 28.552-20.481 34.202-30.267 9.585-16.143 34.807-9.686 34.807 9.08v72.238H536.439v.101z" id="path93"/></g></g></g></g><g id="g152"><defs id="defs106"><clipPath id="clip-path-id-viewbox-item-2"><path id="rect103" d="M0 0h337.986v253.19H0z"/></clipPath></defs><g transform="matrix(1.8551 0 0 1.85631 438 365)" id="g150"><g clip-path="url('#clip-path-id-viewbox-item-2')" id="g148"><g id="Layer_2-i2" data-name="Layer 2"><g id="Layer_1-2-i2" data-name="Layer 1"><path fill="#2b2b2b" id="rect110" d="M0 0h337.986v204.708H0z"/><path fill="#5e41f4" id="rect112" d="M26.03 27.745h151.438v7.264H26.03z"/><path fill="#ffa300" id="rect114" d="M210.257 27.745h101.698v7.264H210.257z"/><path fill="#ff288c" id="rect116" d="M26.03 48.73h78.392v7.264H26.03z"/><path fill="#3acdff" id="rect118" d="M137.212 48.73h174.744v7.264H137.212z"/><path fill="#5e41f4" id="rect120" d="M26.03 69.817h151.438v7.264H26.03z"/><path fill="#ff75c2" id="rect122" d="M196.536 69.817h115.319v7.264H196.536z"/><path fill="#ffa300" id="rect124" d="M26.03 90.903h151.438v7.264H26.03z"/><path fill="#ff288c" id="rect126" d="M210.257 90.903h101.698v7.264H210.257z"/><path fill="#ff288c" id="rect128" d="M26.03 111.888h151.438v7.264H26.03z"/><path fill="#5e41f4" id="rect130" d="M210.257 111.888h101.698v7.264H210.257z"/><path fill="#3acdff" id="rect132" d="M26.03 132.874h55.591v7.264H26.03z"/><path fill="#5e41f4" id="rect134" d="M114.209 132.874h197.646v7.264H114.209z"/><path fill="#5e41f4" id="rect136" d="M26.03 153.96h115.924v7.264H26.03z"/><path fill="#ffa300" id="rect138" d="M174.643 153.96h137.212v7.264H174.643z"/><path fill="#3acdff" id="rect140" d="M26.03 175.046h151.438v7.264H26.03z"/><path fill="#ff288c" id="rect142" d="M210.257 175.046h101.698v7.264H210.257z"/><path d="M262.439 248.147h-20.531l-42.552-57.606a2.5 2.5 0 0 0-2.01-1.015H140.64a2.5 2.5 0 0 0-2.011 1.015l-42.551 57.606H75.546a2.5 2.5 0 1 0 0 5H97a2.413 2.413 0 0 0 .307.043h143.372a2.438 2.438 0 0 0 .307-.043h21.453a2.5 2.5 0 0 0 0-5ZM141.9 194.526h54.183l39.608 53.621h-133.4Z" fill="#2b2b2b" id="path144"/></g></g></g></g></g><g id="g188"><defs id="defs160"><clipPath id="clip-path-id-crop-item-3"><path transform="scale(.54613 .54594)" id="rect154" d="M0 0h1017v432H0z"/></clipPath><clipPath id="clip-path-id-viewbox-item-3"><path id="rect157" d="M0 0h555.959v318.283H0z"/></clipPath></defs><g clip-path="url('#clip-path-id-crop-item-3')" transform="matrix(1.83107 0 0 1.8317 242 802)" id="g186"><g clip-path="url('#clip-path-id-viewbox-item-3')" id="g184"><g id="Layer_2-i3" data-name="Layer 2"><g id="Layer_1-2-i3" data-name="Layer 1"><path fill="#f9d5ff" id="rect164" d="M78.46 10.067h14.804v308.216H78.46z"/><path fill="#f9d5ff" id="rect166" d="M0 10.067h14.804v308.216H0z"/><path fill="#2b2b2b" id="rect168" d="M0 7.18h14.804v21.244H0z"/><path fill="#2b2b2b" id="rect170" d="M78.46 7.18h14.804v21.244H78.46z"/><path fill="#2b2b2b" id="rect172" d="M0 0h555.959v10.067H0z"/><path fill="#f9d5ff" id="rect174" d="M540.711 10.067h14.804v308.216h-14.804z"/><path fill="#f9d5ff" id="rect176" d="M462.25 10.067h14.804v308.216H462.25z"/><path fill="#2b2b2b" id="rect178" d="M462.25 7.18h14.804v21.244H462.25z"/><path fill="#2b2b2b" id="rect180" d="M540.711 7.18h14.804v21.244h-14.804z"/></g></g></g></g></g><g id="g267"><defs id="defs193"><clipPath id="clip-path-id-viewbox-item-4"><path id="rect190" d="M0 0h269.842v444.332H0z"/></clipPath></defs><g transform="matrix(1.86776 0 0 1.86122 508 409)" id="g265"><g clip-path="url('#clip-path-id-viewbox-item-4')" id="g263"><defs id="defs222"><linearGradient id="linear-gradient-i4" x1="-2081.981" y1="-1630.649" x2="-2081.981" y2="-1896.718" gradientTransform="rotate(180 -1005.68 -695.32)" gradientUnits="userSpaceOnUse"><stop offset="0" stop-color="#9774ac" id="stop195"/><stop offset=".4" stop-color="#47a6d3" id="stop197"/><stop offset=".5" stop-color="#a7a7ae" id="stop199"/><stop offset=".59" stop-color="#e89ac0" id="stop201"/><stop offset="1" stop-color="#bfe7d1" id="stop203"/></linearGradient><linearGradient id="linear-gradient-2-i4" x1="234.016" y1="-1674.049" x2="234.016" y2="-1512.339" gradientTransform="matrix(1 0 0 -1 0 -1390.641)" gradientUnits="userSpaceOnUse"><stop offset="0" stop-color="#6b9c83" id="stop206"/><stop offset=".4" stop-color="#a6a6a4" id="stop208"/><stop offset=".5" stop-color="#9f9fc8" id="stop210"/><stop offset=".59" stop-color="#9fccec" id="stop212"/><stop offset="1" stop-color="#ffe7b0" id="stop214"/></linearGradient><linearGradient id="linear-gradient-3-i4" x1="192.701" y1="-1630.649" x2="192.701" y2="-1896.718" gradientTransform="matrix(1 0 0 -1 0 -1390.641)" xlink:href="#linear-gradient-i4"/><linearGradient id="linear-gradient-4-i4" x1="207.698" y1="-1660.955" x2="207.698" y2="-2093.845" gradientTransform="matrix(1 .017 .017 -1 -52.651 -1424.659)" xlink:href="#linear-gradient-i4"/><linearGradient id="linear-gradient-5-i4" x1="210.986" y1="-1639.351" x2="210.986" y2="-1540.211" xlink:href="#linear-gradient-2-i4"/><linearGradient id="linear-gradient-6-i4" x1="3827.35" y1="-1639.351" x2="3827.35" y2="-1540.211" gradientTransform="rotate(180 1936.16 -695.32)" xlink:href="#linear-gradient-2-i4"/><linearGradient id="linear-gradient-7-i4" x1="206.803" y1="-1669.956" x2="206.803" y2="-1570.824" gradientTransform="matrix(1 .017 .017 -1 -52.651 -1424.659)" xlink:href="#linear-gradient-2-i4"/></defs><g id="Layer_2-i4" data-name="Layer 2"><g id="Layer_1-2-i4" data-name="Layer 1"><path d="m139.077 218.739-105.129-3.33a30.8 30.8 0 0 0-31.78 29.864c-.1 1.312 17.555 176.257 17.555 176.257l42.977-1.009 3.027-133.479L90.606 299.2Z" fill="url('#linear-gradient-i4')" id="path226"/><path d="M6 444.332h56.8v-23.71l-42.979 1.009-16.544 16.244a3.9 3.9 0 0 0-1.109 2.725A3.812 3.812 0 0 0 6 444.332Z" fill="#2b2b2b" id="path228"/><path d="M7.111 192.1a25.761 25.761 0 0 0 29.36 21.489c.605-.1 1.109-.2 1.614-.3l2.926-.707a25.423 25.423 0 0 0-6.155-50.243l-3.026.1a25.755 25.755 0 0 0-25.021 26.335c0 1.211.2 2.22.3 3.33Z" fill="#ea7068" id="path230"/><path d="M269.529 183.528a25.716 25.716 0 0 1-29.258 21.49c-.6-.1-1.11-.2-1.715-.3l-2.926-.706a25.386 25.386 0 0 1 6.154-50.143l3.027.1a25.755 25.755 0 0 1 25.021 26.331 31.882 31.882 0 0 1-.3 3.229Z" fill="#ea7068" id="path232"/><path d="m256.716 198.964-3.127 39.953-42.476-2.724 5.448-62.351h16.95a23.36 23.36 0 0 1 23.407 23.407 4.714 4.714 0 0 0-.202 1.715Z" fill="url('#linear-gradient-2-i4')" id="path234"/><path d="m124.246 218.739 105.129-3.33a30.8 30.8 0 0 1 31.78 29.864c.1 1.312-17.555 176.257-17.555 176.257l-42.979-1.009-3.027-133.479-46.5 13.065Z" fill="url('#linear-gradient-3-i4')" id="path236"/><path d="M70.572 238.11c-9.887 27.039 3.228 64.469 33.9 63.662 23.609-.605 25.324.3 35.211.1 31.579-.807 52.464-33.395 42.677-63.46Z" fill="url('#linear-gradient-4-i4')" id="path238"/><path d="m238.858 207.035 14.63 31.781a27.024 27.024 0 0 1-13.318 35.817c-.2.1-.4.1-.6.2a26.978 26.978 0 0 1-31.579-7.869l-41.971-52.06 8.677-84.547 19.875 17.253a177.122 177.122 0 0 1 44.286 59.425Z" fill="url('#linear-gradient-5-i4')" id="path240"/><path d="M17.1 207.035 2.47 238.816a27.023 27.023 0 0 0 13.318 35.817c.2.1.4.1.605.2a26.979 26.979 0 0 0 31.579-7.869l41.971-52.06-8.677-84.547-19.774 17.354A174.744 174.744 0 0 0 17.1 207.035Z" fill="url('#linear-gradient-6-i4')" id="path242"/><circle cx="86.315" cy="56.378" r="15.235" fill="#ea7068" id="circle244"/><circle cx="166.62" cy="57.716" r="15.235" fill="#ea7068" id="circle246"/><path d="m103.361 125.515 1.917-61.543 43.081-.707 3.531 61.544a23.34 23.34 0 0 1-21.79 24.718c-.505 0-.908.1-1.413.1h-1.816a23.359 23.359 0 0 1-23.407-23.406 1.5 1.5 0 0 1-.103-.706Z" fill="#ea7068" id="path248"/><path id="_Path_-i4" data-name="Path" d="M126.768 106.548a37.362 37.362 0 0 1-36.321-33.8l-2.925-32.99A40.546 40.546 0 0 1 128.786.007a40.546 40.546 0 0 1 39.751 41.264L164.3 74.162a37.015 37.015 0 0 1-37.532 32.386Z" fill="#fec73a"/><path d="M182.46 238.413a49.528 49.528 0 0 1-2.623-15.739c0-9.081 21.793-22.9 21.187-50.345-.5-21.086-23.407-52.161-60.131-51.455l-29.662 1.413c-32.285.6-57.71 28.956-59.021 51.353h-.1c0 .707.1 1.211.1 1.917v.606c2.017 37.329 28.148 35.513 18.463 62.048Z" fill="url('#linear-gradient-7-i4')" id="path251"/><path d="M247.232 226.306a1.1 1.1 0 0 1-1.009-.707c-9.584-25.525-27.341-50.042-27.543-50.344a1.08 1.08 0 1 1 1.715-1.312c.1.2 18.06 25.021 27.846 50.849a1.091 1.091 0 0 1-.706 1.413.371.371 0 0 1-.303.101Z" fill="#2b2b2b" id="path253"/><path d="M181.754 235.689a1.1 1.1 0 0 1-.908-.4l-10.8-13.318a1.072 1.072 0 1 1 1.614-1.412l10.8 13.318a1.1 1.1 0 0 1-.1 1.513.609.609 0 0 1-.606.299Z" fill="#2b2b2b" id="path255"/><path d="M70.572 239.22h-.1a1.1 1.1 0 0 1-.908-1.211l4.843-31.781a1.07 1.07 0 1 1 2.118.3l-4.842 31.781a1.1 1.1 0 0 1-1.111.911Z" fill="#2b2b2b" id="path257"/><path d="M257.321 444.332h-56.8v-23.71l42.879 1.009 16.546 16.244a3.9 3.9 0 0 1 1.109 2.724 3.725 3.725 0 0 1-3.733 3.733Z" fill="#2b2b2b" id="path259"/></g></g></g></g></g><g id="g290"><defs id="defs272"><clipPath id="clip-path-id-viewbox-item-5"><path id="rect269" d="M0 0h155.171v64.268H0z"/></clipPath></defs><g transform="matrix(1.83024 0 0 1.83606 1050 598)" id="g288"><g clip-path="url('#clip-path-id-viewbox-item-5')" id="g286"><g id="Layer_2-i5" data-name="Layer 2"><g id="Layer_1-2-i5" data-name="Layer 1"><path d="M129.141 0H76.072a26.114 26.114 0 0 0-26.03 26.131v3.43H0v7.264h50.042v1.413a26.029 26.029 0 0 0 26.03 26.03h53.069a26.029 26.029 0 0 0 26.03-26.03V26.03A26.029 26.029 0 0 0 129.141 0Z" fill="#f9d5ff" id="path276"/><path d="M85.858 41.971h-4.842L73.348 22.9h4.54l5.65 14.73 5.65-14.73h4.338Z" fill="#ffa300" id="path278"/><path d="M115.218 41.971h-4.238v-2.22a7.131 7.131 0 0 1-5.952 2.724c-5.348 0-9.484-4.136-9.484-9.988s4.136-9.987 9.484-9.987a7.131 7.131 0 0 1 5.952 2.724V23h4.137v18.971Zm-15.336-9.484c0 3.329 2.22 6.154 5.751 6.154 3.43 0 5.751-2.623 5.751-6.154s-2.321-6.154-5.751-6.154c-3.632.1-5.751 2.724-5.751 6.154Z" fill="#ffa300" id="path280"/><path d="m134.488 23-1.009 4.137a8.312 8.312 0 0 0-3.128-.707c-2.623 0-4.54 1.917-4.54 5.146v10.395h-4.136V22.9h4.136v2.119a6.446 6.446 0 0 1 5.549-2.619 11.465 11.465 0 0 1 3.128.6Z" fill="#ffa300" id="path282"/></g></g></g></g></g><g id="g311"><defs id="defs295"><clipPath id="clip-path-id-viewbox-item-6"><path id="rect292" d="M0 0h183.925v114.31H0z"/></clipPath></defs><g transform="matrix(1.84314 0 0 1.83711 118 291)" id="g309"><g clip-path="url('#clip-path-id-viewbox-item-6')" id="g307"><g id="Layer_2-i6" data-name="Layer 2"><g id="Layer_1-2-i6" data-name="Layer 1"><path d="M141.046 82.327c10.8-3.834 25.122-6.053 42.879-6.759l-.3-7.265c-22.8.908-38.036 4.137-48.024 8.273-9.4-9.5-22.107-20.383-32.294-28.76a25.975 25.975 0 0 0 1.825-9.578V26.03A26.029 26.029 0 0 0 79.1 0H26.03A26.158 26.158 0 0 0 0 26.03v12.208a26.029 26.029 0 0 0 26.03 26.03H79.1A26 26 0 0 0 99.651 54.2c9.26 7.646 20.384 17.2 28.985 25.7-6.759 3.935-9.988 8.172-11.4 11.4-2.523 5.549-1.615 11.6 2.724 16.747a16.157 16.157 0 0 0 12.51 6.256 12.51 12.51 0 0 0 2.724-.3 15.659 15.659 0 0 0 12.107-10.19c1.312-3.834 2.321-11.6-5.851-20.985-.101-.097-.303-.4-.404-.501Zm-.6 18.867a8.314 8.314 0 0 1-6.457 5.448c-1.817.4-5.247.4-8.274-3.329-2.522-2.926-3.127-6.054-1.715-9.081 1.413-3.228 4.843-6.255 9.989-8.878.706.807 1.412 1.513 2.017 2.119 4.334 4.842 5.847 9.786 4.435 13.721Z" fill="#f9d5ff" id="path299"/><path d="M68.606 29.258h-7.062v16.547H57V29.258h-4.133v-4.136H57v-3.531c0-4.137 2.118-7.466 6.961-7.466a11.393 11.393 0 0 1 5.751 1.513L68.1 19.472a7.652 7.652 0 0 0-3.834-1.11c-1.715 0-2.724 1.211-2.724 3.229v3.531h7.062Z" fill="#ff288c" id="path301"/><path d="M49.235 17.959a3.166 3.166 0 0 1-3.229 3.127 3.1 3.1 0 0 1-3.127-3.228 3.143 3.143 0 0 1 3.127-3.128 3.319 3.319 0 0 1 3.229 3.229ZM48.226 45.7h-4.54V25.122h4.54Z" fill="#ff288c" id="path303"/></g></g></g></g></g><g id="g332"><defs id="defs316"><clipPath id="clip-path-id-viewbox-item-7"><path id="rect313" d="M0 0h105.129v143.112H0z"/></clipPath></defs><g transform="matrix(1.81682 0 0 1.81676 529 125)" id="g330"><g clip-path="url('#clip-path-id-viewbox-item-7')" id="g328"><g id="Layer_2-i7" data-name="Layer 2"><g id="Layer_1-2-i7" data-name="Layer 1"><path d="M79.1 0H26.031A25.986 25.986 0 0 0 0 26.131v12.107a26.029 26.029 0 0 0 26.03 26.03h23.478l5.382 78.844 7.247-.5-5.348-78.344H79.1a26.029 26.029 0 0 0 26.03-26.03V26.03A26.028 26.028 0 0 0 79.1 0Z" fill="#f9d5ff" id="path320"/><path d="M43.989 17.454c-2.926 0-4.843 1.614-4.641 4.439l.1 2.321c.1 3.43-1.412 5.952-4.54 7.163 3.128 1.211 4.641 3.733 4.54 7.163l-.1 2.321c-.1 2.825 1.715 4.439 4.641 4.439H45v4.238h-1.011c-6.356 0-9.685-3.532-9.383-9.282l.1-2.321c.1-2.825-1.715-4.439-4.742-4.439v-4.238c3.027 0 4.843-1.614 4.742-4.439l-.1-2.32c-.3-5.65 3.027-9.282 9.383-9.282H45v4.237Z" fill="#ffa300" id="path322"/><path d="M61.242 45.4c2.925 0 4.842-1.614 4.641-4.439l-.1-2.321c-.1-3.43 1.412-5.952 4.54-7.163-3.128-1.211-4.641-3.733-4.54-7.163l.1-2.321c.1-2.825-1.716-4.439-4.641-4.439h-1.009v-4.236h1.009c6.356 0 9.685 3.531 9.382 9.282l-.1 2.32c-.1 2.825 1.715 4.439 4.741 4.439V33.6c-3.026 0-4.842 1.614-4.741 4.439l.1 2.32c.3 5.65-3.026 9.282-9.382 9.282h-1.009V45.4Z" fill="#ffa300" id="path324"/></g></g></g></g></g><g id="g355"><defs id="defs337"><clipPath id="clip-path-id-viewbox-item-8"><path id="rect334" d="M0 0h150.832v64.268H0z"/></clipPath></defs><g transform="matrix(1.83648 0 0 1.83606 176 575)" id="g353"><g clip-path="url('#clip-path-id-viewbox-item-8')" id="g351"><g id="Layer_2-i8" data-name="Layer 2"><g id="Layer_1-2-i8" data-name="Layer 1"><path d="M150.832 41.365h-45.9a26.225 26.225 0 0 0 .194-3.127V26.03A26.029 26.029 0 0 0 79.1 0H26.131A26.114 26.114 0 0 0 0 26.03v12.208a26.029 26.029 0 0 0 26.03 26.03H79.1a26.043 26.043 0 0 0 23.868-15.638h47.864Z" fill="#f9d5ff" id="path341"/><path d="m38.54 42.475-16.546-7.668v-4.136L38.54 23v4.54l-12.107 5.149 12.107 5.246Z" fill="#5e41f4" id="path343"/><path d="M46.41 47.52h-4.641L58.92 12.309h4.641Z" fill="#5e41f4" id="path345"/><path d="m66.689 22.9 16.546 7.67v4.137l-16.546 7.768v-4.54L78.8 32.79l-12.111-5.247Z" fill="#5e41f4" id="path347"/></g></g></g></g></g><g id="g380"><defs id="defs360"><clipPath id="clip-path-id-viewbox-item-9"><path id="rect357" d="M0 0h105.129v143.503H0z"/></clipPath></defs><g transform="matrix(1.82633 0 0 1.83271 888 124)" id="g378"><g clip-path="url('#clip-path-id-viewbox-item-9')" id="g376"><g id="Layer_2-i9" data-name="Layer 2"><g id="Layer_1-2-i9" data-name="Layer 1"><path d="M79.1 0H26.03A26.114 26.114 0 0 0 0 26.131v12.107a26.029 26.029 0 0 0 26.03 26.03h15.01L26.158 142.14l7.135 1.363 15.142-79.235H79.1a26.029 26.029 0 0 0 26.03-26.03V26.03A26.029 26.029 0 0 0 79.1 0Z" fill="#f9d5ff" id="path364"/><path d="M38.137 32.386a6.659 6.659 0 0 1-.1 1.413H25.223a4.835 4.835 0 0 0 5.145 4.439 9.309 9.309 0 0 0 5.045-1.816l1.917 2.724a10.316 10.316 0 0 1-7.164 2.421c-5.145 0-8.878-3.632-8.878-9.08s3.531-9.08 8.677-9.08c4.842-.101 8.172 3.632 8.172 8.979Zm-12.813-1.412H34.3c-.4-2.724-2.018-4.339-4.338-4.339a4.506 4.506 0 0 0-4.641 4.339Z" fill="#5e41f4" id="path366"/><path d="M46.612 41.164h-3.834V15.033h3.834Z" fill="#5e41f4" id="path368"/><path d="M64.369 28.149a11.15 11.15 0 0 0-5.348-1.413c-2.017 0-3.329.807-3.329 2.018s1.211 1.513 2.825 1.816l1.816.3c3.834.5 6.053 2.118 6.053 5.145 0 3.33-2.925 5.65-7.869 5.65a12.473 12.473 0 0 1-7.466-2.22l1.715-2.824a8.194 8.194 0 0 0 5.65 1.715c2.522 0 3.935-.807 3.935-2.119 0-.908-.908-1.614-3.027-1.917l-1.816-.2c-3.834-.5-5.953-2.32-5.953-5.145 0-3.431 2.724-5.549 7.164-5.549a12.837 12.837 0 0 1 6.961 1.816Z" fill="#5e41f4" id="path370"/><path d="M86.565 32.386a6.659 6.659 0 0 1-.1 1.413H73.651a4.834 4.834 0 0 0 5.149 4.439 9.309 9.309 0 0 0 5.045-1.816l1.917 2.724a10.317 10.317 0 0 1-7.164 2.421c-5.145 0-8.878-3.632-8.878-9.08s3.531-9.08 8.576-9.08c4.838-.101 8.168 3.632 8.269 8.979Zm-12.914-1.412h8.979c-.4-2.724-2.018-4.339-4.338-4.339a4.506 4.506 0 0 0-4.641 4.339Z" fill="#5e41f4" id="path372"/></g></g></g></g></g><g id="g415"><defs id="defs385"><clipPath id="clip-path-id-viewbox-item-10"><path id="rect382" d="M0 0h214.664v225.905H0z"/></clipPath></defs><g transform="matrix(1.85406 0 0 1.85034 551 816)" id="g413"><g clip-path="url('#clip-path-id-viewbox-item-10')" id="g411"><g id="g409"><g id="g389"><path transform="rotate(-84.365 55.305 186.62)" fill="#2B2B2B" id="rect387" d="M16.568 179.315h77.487v14.63H16.568z"/></g><g id="g393"><path transform="rotate(-5.641 160.04 186.52)" fill="#2B2B2B" id="rect391" d="M152.777 147.831h14.63v77.488h-14.63z"/></g><path fill="#FD8D45" d="M199.68 58.416h.101c8.878.706 15.537 8.576 14.831 17.454l-.706 8.576c-.706 8.878-8.576 15.537-17.454 14.831h-.101c-8.878-.706-15.537-8.576-14.831-17.454l.706-8.576c.706-8.979 8.475-15.537 17.454-14.831z" id="path395"/><path fill="#FD8D45" d="M17.269 99.378h-.101C8.29 99.781.622 92.82.42 83.841l-.404-8.576c-.404-8.878 6.558-16.546 15.537-16.748h.101c8.878-.404 16.546 6.558 16.748 15.537l.404 8.576c.404 8.878-6.558 16.344-15.537 16.748z" id="path397"/><path fill="#FDCF45" d="M160.636 151.942H54.7c-18.463 0-33.799-14.327-35.11-32.79l-5.549-81.621C12.729 18.16 27.358 1.413 46.729.101 47.536 0 48.344 0 49.151 0h117.034c19.371 0 35.211 15.739 35.211 35.211 0 .807 0 1.614-.101 2.421l-5.549 81.621c-1.312 18.363-16.647 32.689-35.11 32.689z" id="path399"/><g id="g403"><path fill="#FD8D45" d="M174.357 55.591H40.979c-.605 0-1.11-.504-1.11-1.11s.504-1.11 1.11-1.11h133.479c.605 0 1.11.504 1.11 1.11s-.606 1.11-1.211 1.11z" id="path401"/></g><g id="g407"><path fill="#FD8D45" d="M168.505 95.039H46.83c-.605 0-1.11-.504-1.11-1.11s.504-1.11 1.11-1.11h121.574c.605 0 1.11.504 1.11 1.11s-.404 1.11-1.009 1.11z" id="path405"/></g></g></g></g></g><g id="g432"><defs id="defs420"><clipPath id="clip-path-id-viewbox-item-11"><path id="rect417" d="M0 0h298.334v3.035H0z"/></clipPath></defs><g transform="matrix(2.35307 0 0 2.30643 210 1232)" id="g430"><g clip-path="url('#clip-path-id-viewbox-item-11')" id="g428"><g id="Layer_2-i11" data-name="Layer 2"><g id="Layer_1-2-i11" data-name="Layer 1"><path fill="#2b2b2b" id="rect424" d="M0 0h298.334v3.035H0z"/></g></g></g></g></g><g id="g465"><defs id="defs437"><clipPath id="clip-path-id-viewbox-item-12"><path id="rect434" d="M0 0h285.018v226.079H0z"/></clipPath></defs><g transform="matrix(1.87707 0 0 1.87545 866 817)" id="g463"><g clip-path="url('#clip-path-id-viewbox-item-12')" id="g461"><g id="g459"><linearGradient id="SVGID_7_-i12" gradientUnits="userSpaceOnUse" x1="-2360.151" y1="-252.52" x2="-2360.151" y2="-430.54" gradientTransform="rotate(180 -1109.704 -106.026)"><stop offset="0" style="stop-color:#c0ddfc" id="stop439"/><stop offset=".19" style="stop-color:#d3e7fd" id="stop441"/><stop offset=".49" style="stop-color:#ebf4fe" id="stop443"/><stop offset=".77" style="stop-color:#fafcff" id="stop445"/><stop offset="1" style="stop-color:#fff" id="stop447"/></linearGradient><path fill="url('#SVGID_7_-i12')" d="M0 225.877c80.209 0 77.585-131.966 147.301-149.319 27.846-6.961 42.98-29.258 55.894-53.573 21.49-40.457 78.292-24.113 78.292 22.6v180.393H0v-.101z" id="path450"/><linearGradient id="SVGID_18_-i12" gradientUnits="userSpaceOnUse" x1="-17524.084" y1="-363.822" x2="-17524.084" y2="-435.139" gradientTransform="rotate(180 -8659.764 -106.026)"><stop offset="0" style="stop-color:#ffd8a1" id="stop452"/><stop offset="1" style="stop-color:#fff" id="stop454"/></linearGradient><path fill="url('#SVGID_18_-i12')" d="M124.096 226.079c43.383 0 39.852-56.903 91.912-51.152 17.858 2.018 28.552-20.481 34.202-30.267 9.585-16.143 34.807-9.686 34.807 9.08v72.238H124.096v.101z" id="path457"/></g></g></g></g><g id="g486"><defs id="defs470"><clipPath id="clip-path-id-viewbox-item-13"><path id="rect467" d="M0 0h187.355v116.227H0z"/></clipPath></defs><g transform="matrix(1.87879 0 0 1.88424 1047 284)" id="g484"><g clip-path="url('#clip-path-id-viewbox-item-13')" id="g482"><g id="g480"><path fill="#F9D5FF" d="M108.256 0h53.069c14.427 0 26.03 11.703 26.03 26.03v12.208c0 14.427-11.703 26.03-26.03 26.03h-53.069c-14.427 0-26.03-11.703-26.03-26.03V26.03C82.125 11.602 93.829 0 108.256 0z" id="path472"/><path fill="#3ACDFF" d="M139.129 20.985c0 2.321-1.917 4.237-4.237 4.237s-4.237-1.917-4.237-4.237 1.917-4.237 4.237-4.237a4.402 4.402 0 0 1 4.237 4.237zm-1.009 13.116-2.926 13.318h-4.338l1.312-13.318h5.952z" id="path474"/><g id="g478"><path fill="#F9D5FF" d="M51.455 116.227c-.908 0-1.816-.101-2.724-.202-5.549-.908-10.19-4.843-12.107-10.19-1.312-3.834-2.421-11.502 5.852-20.985.101-.101.303-.404.404-.504C32.184 80.511 17.656 78.292 0 77.585l.303-7.264c22.801.908 38.036 4.137 48.024 8.273 17.959-18.261 48.024-41.365 49.437-42.475l4.439 5.751c-.404.303-29.057 22.398-46.914 40.054 6.76 3.935 9.887 8.172 11.401 11.401 2.522 5.65 1.513 11.602-2.724 16.748-3.229 3.934-7.77 6.154-12.511 6.154zm-1.413-28.956c-.706.807-1.413 1.513-2.018 2.22-4.237 4.843-5.852 9.786-4.439 13.721 1.009 2.825 3.531 4.843 6.457 5.448 1.816.303 5.347.303 8.273-3.329 2.522-3.027 3.027-6.053 1.715-9.08-1.412-3.229-4.842-6.256-9.988-8.98z" id="path476"/></g></g></g></g></g></svg>