<?xml version="1.0" encoding="UTF-8"?>
<svg xmlns="http://www.w3.org/2000/svg" xmlns:xlink="http://www.w3.org/1999/xlink" viewBox="0 0 500 500" width="500px" height="500px">
<g id="surface1464263">
<path style=" stroke:none;fill-rule:evenodd;fill:rgb(40.784314%,12.941177%,47.843137%);fill-opacity:1;" d="M 238.574219 34.230469 C 245.644531 30.261719 254.355469 30.261719 261.417969 34.230469 C 296.363281 53.84375 401.53125 112.886719 436.488281 132.5 C 443.5625 136.457031 447.917969 143.792969 447.917969 151.730469 C 447.917969 190.957031 447.917969 309.03125 447.917969 348.261719 C 447.917969 356.199219 443.5625 363.53125 436.488281 367.5 C 401.542969 387.113281 296.375 446.15625 261.417969 465.769531 C 254.34375 469.738281 245.636719 469.738281 238.574219 465.769531 C 203.625 446.15625 98.457031 387.113281 63.5 367.5 C 56.4375 363.53125 52.082031 356.207031 52.082031 348.269531 C 52.082031 309.042969 52.082031 190.96875 52.082031 151.738281 C 52.082031 143.800781 56.4375 136.46875 63.511719 132.5 C 98.449219 112.886719 203.636719 53.84375 238.574219 34.230469 Z M 238.574219 34.230469 "/>
<path style=" stroke:none;fill-rule:evenodd;fill:rgb(58.431375%,23.921569%,67.450982%);fill-opacity:1;" d="M 55.25 358.375 C 52.480469 354.667969 52.082031 351.144531 52.082031 346.40625 C 52.082031 307.40625 52.082031 190.011719 52.082031 151 C 52.082031 143.105469 56.425781 135.8125 63.480469 131.875 C 98.300781 112.375 203.113281 53.675781 237.9375 34.167969 C 244.988281 30.21875 254.542969 30.300781 261.59375 34.25 C 296.417969 53.75 400.875 111.949219 435.699219 131.449219 C 438.511719 133.03125 440.65625 134.9375 442.574219 137.449219 Z M 55.25 358.375 "/>
<path style=" stroke:none;fill-rule:evenodd;fill:rgb(100%,100%,100%);fill-opacity:1;" d="M 250 104.167969 C 330.488281 104.167969 395.832031 169.511719 395.832031 250 C 395.832031 330.488281 330.488281 395.832031 250 395.832031 C 169.511719 395.832031 104.167969 330.488281 104.167969 250 C 104.167969 169.511719 169.511719 104.167969 250 104.167969 Z M 250 177.082031 C 290.238281 177.082031 322.917969 209.75 322.917969 250 C 322.917969 290.238281 290.238281 322.917969 250 322.917969 C 209.761719 322.917969 177.082031 290.238281 177.082031 250 C 177.082031 209.75 209.75 177.082031 250 177.082031 Z M 250 177.082031 "/>
<path style=" stroke:none;fill-rule:evenodd;fill:rgb(50.980395%,17.254902%,59.607846%);fill-opacity:1;" d="M 442.550781 137.550781 C 447.925781 142.582031 447.824219 150.167969 447.824219 156.136719 C 447.824219 195.667969 447.488281 308.105469 447.917969 347.636719 C 447.957031 351.761719 446.59375 356.105469 444.550781 359.375 L 245.761719 250 Z M 442.550781 137.550781 "/>
<path style=" stroke:none;fill-rule:evenodd;fill:rgb(100%,100%,100%);fill-opacity:1;" d="M 354.167969 208.332031 L 364.582031 208.332031 L 364.582031 291.667969 L 354.167969 291.667969 Z M 385.417969 208.332031 L 395.832031 208.332031 L 395.832031 291.667969 L 385.417969 291.667969 Z M 385.417969 208.332031 "/>
<path style=" stroke:none;fill-rule:evenodd;fill:rgb(100%,100%,100%);fill-opacity:1;" d="M 333.332031 260.417969 L 416.667969 260.417969 L 416.667969 270.832031 L 333.332031 270.832031 Z M 333.332031 229.167969 L 416.667969 229.167969 L 416.667969 239.582031 L 333.332031 239.582031 Z M 333.332031 229.167969 "/>
</g>
</svg>
