<?xml version="1.0" encoding="UTF-8"?>
<svg xmlns="http://www.w3.org/2000/svg" xmlns:xlink="http://www.w3.org/1999/xlink" viewBox="0 0 15 15" width="15px" height="15px">
<defs>
<linearGradient id="linear0" gradientUnits="userSpaceOnUse" x1="35.324501" y1="35.324501" x2="136.675507" y2="136.675507" gradientTransform="matrix(0.0872093,0,0,0.0872093,0,0)">
<stop offset="0" style="stop-color:rgb(100%,61.56863%,61.56863%);stop-opacity:1;"/>
<stop offset="1" style="stop-color:rgb(81.960785%,31.37255%,31.37255%);stop-opacity:1;"/>
</linearGradient>
<linearGradient id="linear1" gradientUnits="userSpaceOnUse" x1="46.583328" y1="88.841583" x2="129" y2="88.841583" gradientTransform="matrix(0.0872093,0,0,0.0872093,0,0)">
<stop offset="0.824" style="stop-color:rgb(7.450981%,36.470589%,21.176471%);stop-opacity:1;"/>
<stop offset="0.931" style="stop-color:rgb(7.058824%,34.901962%,20%);stop-opacity:1;"/>
<stop offset="1" style="stop-color:rgb(6.666667%,32.156864%,18.431373%);stop-opacity:1;"/>
</linearGradient>
</defs>
<g id="surface3881703">
<path style=" stroke:none;fill-rule:nonzero;fill:url(#linear0);" d="M 13.75 7.5 C 13.75 10.953125 10.953125 13.75 7.5 13.75 C 4.046875 13.75 1.25 10.953125 1.25 7.5 C 1.25 4.046875 4.046875 1.25 7.5 1.25 C 10.953125 1.25 13.75 4.046875 13.75 7.5 Z M 13.75 7.5 "/>
<path style=" stroke:none;fill-rule:nonzero;fill:url(#linear1);" d="M 6.652344 10.222656 L 4.152344 7.722656 C 4.03125 7.597656 4.03125 7.402344 4.152344 7.277344 L 4.597656 6.835938 C 4.71875 6.714844 4.914062 6.714844 5.039062 6.835938 L 6.875 8.675781 L 10.273438 5.273438 C 10.398438 5.152344 10.59375 5.152344 10.714844 5.273438 L 11.160156 5.714844 C 11.28125 5.839844 11.28125 6.035156 11.160156 6.160156 L 7.097656 10.222656 C 6.972656 10.34375 6.777344 10.34375 6.652344 10.222656 Z M 6.652344 10.222656 "/>
</g>
</svg>
